<?xml version="1.0" encoding="utf-8"?>
<!-- Generator: Adobe Illustrator 19.1.0, SVG Export Plug-In . SVG Version: 6.00 Build 0)  -->
<!DOCTYPE svg PUBLIC "-//W3C//DTD SVG 1.1//EN" "http://www.w3.org/Graphics/SVG/1.1/DTD/svg11.dtd">
<svg version="1.1" id="Layer_1" xmlns="http://www.w3.org/2000/svg" xmlns:xlink="http://www.w3.org/1999/xlink" x="0px" y="0px"
	 viewBox="45 -15.7 190.4 168.8" style="enable-background:new 45 -15.7 190.4 168.8;" xml:space="preserve">
<style type="text/css">
	.st0{fill:#787878;}
	.st1{fill:#991B1E;}
	.st2{fill:#990000;}
</style>
<path id="XMLID_22_" class="st0" d="M184.2-5C114,8.5,76.5,31.7,79.2,65.5C86.5,33.3,120,11.9,184.2-5z"/>
<path id="XMLID_21_" class="st0" d="M148.9,27.6l-5.3-13.1C110,28.5,84.2,54.5,82,84h36l8.3-37.5l15.2,23.8l25.7-24.2L159.3,84h36.3
	l20-93.3C181.7-4.4,163.2,10.4,148.9,27.6z"/>
<path id="XMLID_3_" class="st0" d="M221.3-5.8H220l-0.9,3.3H218l0.9-3.3h-1.2l0.2-0.9h3.6L221.3-5.8z M226.5-2.4h-1.1l0.9-3.3h-0.1
	l-1.6,2.3h-0.8l-0.4-2.4H223l-0.9,3.4H221l1.1-4.2h1.8l0.3,2.1l1.4-2.1h1.8L226.5-2.4z"/>
<g id="XMLID_35_">
	<path id="XMLID_20_" class="st1" d="M235.4-10.8c-22-4.8-49.7-6.3-79-3.5c-6.9,0.7-13.6,1.6-20.1,2.6l-1-3.6h-32l-2.4,11.9
		c-36.1,11.5-58.8,29.3-55.6,47C47.4,55,60,64.4,79.1,70.8C33.2,35.8,129-19.6,235.4-10.8z"/>
	<g id="XMLID_34_">
		<polygon id="XMLID_19_" class="st1" points="107.3,95.1 99.4,105.3 97.2,98.6 92.5,98.6 96.4,109.3 95,115.7 99.4,115.7 
			100.9,109.1 112.4,95.1 		"/>
		<path id="XMLID_30_" class="st1" d="M117,98.3c-1.6,0-3.1,0.3-4.4,0.9c-1.4,0.6-2.5,1.4-3.4,2.4s-1.7,2.2-2.2,3.5
			s-0.8,2.7-0.8,4.2c0,2.1,0.7,3.8,2,5c1.3,1.2,3.1,1.8,5.5,1.8c1.7,0,3.2-0.3,4.5-0.9c1.3-0.6,2.5-1.4,3.4-2.5
			c0.9-1,1.6-2.2,2.1-3.5s0.7-2.7,0.7-4.1c0-2.1-0.7-3.7-2-4.9C121.1,98.9,119.3,98.3,117,98.3z M119.4,108.4
			c-0.3,0.9-0.7,1.7-1.2,2.4c-0.5,0.7-1.1,1.2-1.8,1.5c-0.7,0.4-1.4,0.5-2.1,0.5c-1.1,0-1.9-0.3-2.5-1s-0.9-1.6-0.9-3
			c0-1.2,0.2-2.2,0.5-3.2c0.3-0.9,0.7-1.7,1.3-2.4c0.5-0.7,1.1-1.2,1.8-1.5c0.6-0.3,1.3-0.5,2-0.5c1.1,0,1.9,0.3,2.5,1
			s0.9,1.6,0.9,2.9C119.8,106.5,119.6,107.5,119.4,108.4z"/>
		<polygon id="XMLID_16_" class="st1" points="78.8,105.4 76.5,95.1 70.4,95.1 65.7,115.7 70.7,115.7 73.9,101.6 75.8,110.8 
			79.4,110.8 85.1,102.2 82,115.7 87.3,115.7 92,95.1 85.8,95.1 		"/>
	</g>
</g>
<path id="XMLID_15_" class="st0" d="M154.7,102.9c0-1.4-0.6-2.5-1.7-3.2c-1.1-0.7-2.7-1.1-4.8-1.1h-7.5H136h-10.3l-0.8,3.3h5.3
	l-3.2,13.8h4.4l3.2-13.7c4.3,0,8.4-0.2,12.7-0.2c0.9,0,1.5,0.1,1.9,0.4c0.4,0.3,0.7,0.8,0.7,1.5c0,0.8-0.3,1.5-1,2
	c-0.6,0.5-1.5,0.7-2.7,0.7H144l0.8-3.5l-4.7,1.2l-2.7,11.6h4.6l1.4-6.2h2.5l3.2,6.2h4.9l-3.9-7.2c1.4-0.5,2.6-1.2,3.4-2.1
	C154.3,105.4,154.7,104.3,154.7,102.9z"/>
<path id="XMLID_14_" class="st0" d="M168.7,108.1l0.8-3.2h-7.4l0.7-3c2.7,0,5.3,0,8,0l0.7-3.2h-12.3l-0.5,2l-1,4.2l0,0l-2.5,10.8
	h12.3l0.7-3.2h-7.9l1-4.3h7.4V108.1z"/>
<polygon id="XMLID_13_" class="st0" points="184.7,98.6 182.5,108.5 178.2,98.6 173.3,98.6 169.3,115.7 173.4,115.7 176.1,103.9 
	181.1,115.7 184.8,115.7 188.8,98.6 "/>
<path id="XMLID_23_" class="st0" d="M205,102.2c-0.4-0.9-1.1-1.6-1.9-2.2c-0.6-0.4-1.4-0.8-2.4-1s-2.3-0.4-3.9-0.4h-5.5l-3.9,17h6.2
	c1.5,0,2.7-0.1,3.8-0.3c1-0.2,2-0.5,3-1c1.6-0.9,2.9-2.1,3.9-3.8c1-1.6,1.5-3.4,1.5-5.3C205.7,104.1,205.4,103.1,205,102.2z
	 M200.2,109.4c-0.6,1.1-1.4,2-2.5,2.5c-0.4,0.2-0.7,0.3-1.1,0.4c-0.3,0.1-0.7,0.1-1.1,0.2c-0.3,0-0.7,0.1-1.2,0.1s-1,0-1.4,0h-0.4
	l2.5-10.8h0.1c0.3,0,0.7,0,1.2,0c0.4,0,0.9,0,1.2,0c0.4,0,0.7,0.1,1,0.2s0.6,0.2,0.8,0.3c0.6,0.3,1,0.8,1.3,1.4s0.4,1.2,0.4,2
	C201.1,107,200.8,108.2,200.2,109.4z"/>
<path id="XMLID_7_" class="st0" d="M210.2,99.2h-1v2.6h-0.6v-2.6h-1v-0.5h2.6V99.2z M214.7,101.8h-0.6V99H214l-1.1,2h-0.4l-1.1-2
	h-0.1v2.8H211v-3.1h1.1l0.9,1.7l0.9-1.7h1v3.1H214.7z"/>
<polyline class="st2" points="123.7,134.3 140.5,153.1 156.8,134.3 "/>
</svg>
